<?xml version="1.0" standalone="no"?>
<!DOCTYPE svg PUBLIC "-//W3C//DTD SVG 20010904//EN"
 "http://www.w3.org/TR/2001/REC-SVG-20010904/DTD/svg10.dtd">
<svg version="1.0" xmlns="http://www.w3.org/2000/svg"
 width="1024.000000pt" height="173.000000pt" viewBox="0 0 1024.000000 173.000000"
 preserveAspectRatio="xMidYMid meet">

<g transform="translate(0.000000,173.000000) scale(0.100000,-0.100000)"
fill="#000000" stroke="none">
<path d="M5120 865 l0 -865 1295 0 1295 0 0 865 0 865 -1295 0 -1295 0 0 -865z
m1688 476 c6 -1 12 -12 12 -26 0 -31 -13 -34 -154 -38 l-109 -2 -13 -40 c-7
-22 -43 -156 -79 -298 l-68 -259 36 -29 c43 -35 53 -69 32 -112 -20 -42 -62
-67 -113 -67 -23 0 -44 -4 -47 -10 -3 -5 0 -10 8 -10 8 0 29 -16 47 -37 27
-30 31 -42 26 -71 -13 -83 -98 -118 -196 -81 -28 10 -60 59 -60 91 0 28 29 74
57 89 13 7 23 15 23 18 0 8 -506 8 -513 1 -3 -3 10 -16 29 -30 85 -63 34 -182
-78 -182 -61 0 -106 25 -124 68 -19 45 -9 79 32 112 41 32 42 40 8 40 -32 0
-57 23 -48 45 6 16 42 17 408 18 478 1 466 0 466 44 0 18 -7 28 -24 35 -13 5
-136 27 -272 50 -137 22 -330 54 -429 70 -98 17 -185 36 -191 43 -6 6 -39 97
-73 200 -44 139 -58 194 -51 207 8 14 29 19 122 24 62 4 203 13 313 21 424 31
473 34 577 41 l107 6 6 29 c4 16 13 32 20 36 11 6 251 9 313 4z m267 -218
c177 -4 300 -10 275 -14 -25 -3 -193 -10 -374 -14 -181 -4 -339 -9 -352 -11
-25 -5 -30 8 -17 41 5 15 16 17 77 11 39 -3 215 -9 391 -13z m-120 -129 c319
-7 416 -22 160 -25 -88 -1 -248 -4 -355 -8 -107 -3 -197 -5 -199 -4 -2 1 0 14
3 29 7 24 9 26 54 21 26 -3 178 -9 337 -13z m-27 -130 c150 -4 270 -9 268 -11
-6 -6 -666 -29 -666 -23 0 3 3 16 7 29 6 22 9 23 62 17 31 -3 179 -8 329 -12z"/>
<path d="M6323 1233 c-8 -3 -13 -23 -13 -49 l0 -45 61 3 62 3 13 45 c8 25 14
46 14 48 0 4 -125 0 -137 -5z"/>
<path d="M6138 1222 c-36 -3 -37 -4 -35 -40 2 -36 3 -37 41 -37 39 0 39 1 39
38 0 20 -2 38 -4 40 -2 1 -21 1 -41 -1z"/>
<path d="M6210 1185 l0 -46 38 3 c36 3 37 4 37 43 0 39 -1 40 -37 43 l-38 3 0
-46z"/>
<path d="M6007 1213 c-4 -3 -7 -21 -7 -40 0 -32 1 -33 40 -33 l40 0 0 40 c0
39 -1 40 -33 40 -19 0 -37 -3 -40 -7z"/>
<path d="M5907 1203 c-4 -3 -7 -19 -7 -35 0 -26 3 -28 40 -28 39 0 40 1 40 35
0 33 -2 35 -33 35 -19 0 -37 -3 -40 -7z"/>
<path d="M5700 1170 c0 -28 3 -30 35 -30 32 0 35 2 35 30 0 28 -3 30 -35 30
-32 0 -35 -2 -35 -30z"/>
<path d="M5800 1170 c0 -28 2 -30 40 -30 38 0 40 2 40 30 0 28 -2 30 -40 30
-38 0 -40 -2 -40 -30z"/>
<path d="M5597 1171 c-6 -26 0 -31 40 -31 29 0 33 3 33 25 0 22 -4 25 -34 25
-25 0 -35 -5 -39 -19z"/>
<path d="M5432 1163 c3 -15 16 -19 71 -21 62 -3 67 -1 67 18 0 18 -6 20 -71
20 -62 0 -70 -2 -67 -17z"/>
<path d="M5450 1104 c0 -39 19 -54 70 -54 l50 0 0 35 0 35 -60 0 c-48 0 -60
-3 -60 -16z"/>
<path d="M5597 1112 c-3 -4 -3 -20 0 -35 5 -25 10 -28 37 -25 27 3 31 7 34 36
3 31 2 32 -32 32 -19 0 -37 -3 -39 -8z"/>
<path d="M5700 1085 c0 -33 2 -35 35 -35 33 0 35 2 35 35 0 33 -2 35 -35 35
-33 0 -35 -2 -35 -35z"/>
<path d="M5800 1084 c0 -35 1 -35 38 -32 34 3 37 6 40 36 3 31 2 32 -37 32
-40 0 -41 -1 -41 -36z"/>
<path d="M5900 1090 c0 -23 5 -31 25 -36 38 -9 55 2 55 36 0 28 -2 30 -40 30
-38 0 -40 -2 -40 -30z"/>
<path d="M6002 1088 c3 -30 6 -33 38 -33 32 0 35 3 38 33 3 31 3 32 -38 32
-41 0 -41 -1 -38 -32z"/>
<path d="M6108 1113 c-3 -4 -4 -19 -4 -33 1 -22 6 -25 39 -28 28 -2 37 1 38
12 1 9 2 24 3 34 1 13 -8 18 -36 20 -20 2 -38 -1 -40 -5z"/>
<path d="M6212 1088 c3 -30 6 -33 38 -33 32 0 35 2 35 30 0 28 -3 30 -38 33
-38 3 -38 3 -35 -30z"/>
<path d="M6312 1088 c3 -32 5 -33 48 -34 48 -1 60 7 60 44 0 20 -5 22 -56 22
l-55 0 3 -32z"/>
<path d="M5480 1014 c0 -34 19 -52 52 -51 29 2 33 6 36 35 3 32 3 32 -42 32
-35 0 -46 -4 -46 -16z"/>
<path d="M5600 994 c0 -34 1 -35 33 -32 28 3 32 7 35 36 3 31 2 32 -32 32 -35
0 -36 -1 -36 -36z"/>
<path d="M5700 996 c0 -33 1 -35 35 -33 32 2 35 4 35 35 0 30 -2 32 -35 32
-33 0 -35 -2 -35 -34z"/>
<path d="M5802 998 c3 -28 7 -34 32 -36 31 -4 46 10 46 46 0 19 -5 22 -41 22
-39 0 -40 -1 -37 -32z"/>
<path d="M5902 1000 c2 -23 8 -31 30 -35 37 -8 48 0 48 36 0 27 -2 29 -40 29
-39 0 -40 -1 -38 -30z"/>
<path d="M6002 998 c3 -30 6 -33 38 -33 32 0 35 3 38 33 3 31 3 32 -38 32 -41
0 -41 -1 -38 -32z"/>
<path d="M6107 1023 c-6 -11 -2 -51 5 -59 4 -3 20 -3 36 1 29 6 43 27 35 53
-5 13 -69 17 -76 5z"/>
<path d="M6212 998 c3 -30 6 -33 38 -33 32 0 35 3 38 33 3 31 3 32 -38 32 -41
0 -41 -1 -38 -32z"/>
<path d="M6310 1000 c0 -16 3 -30 8 -31 4 0 19 -3 35 -5 22 -4 29 0 37 21 16
41 13 45 -35 45 -43 0 -45 -1 -45 -30z"/>
<path d="M5835 942 c-34 -4 -45 -16 -38 -43 4 -15 15 -19 44 -19 36 0 39 2 39
29 0 35 -5 38 -45 33z"/>
<path d="M5928 943 c-23 -4 -28 -9 -28 -34 0 -27 2 -29 41 -29 39 0 40 1 37
32 -3 34 -8 37 -50 31z"/>
<path d="M6338 942 c-23 -3 -28 -8 -28 -33 0 -25 4 -29 29 -29 23 0 30 5 34
28 7 33 0 39 -35 34z"/>
<path d="M5511 910 c8 -22 17 -30 35 -30 20 0 24 5 24 30 0 28 -3 30 -34 30
-34 0 -35 0 -25 -30z"/>
<path d="M5598 923 c-8 -31 3 -43 38 -43 31 0 34 3 34 30 0 27 -3 30 -34 30
-24 0 -35 -5 -38 -17z"/>
<path d="M5700 910 c0 -28 3 -30 35 -30 32 0 35 2 35 30 0 28 -3 30 -35 30
-32 0 -35 -2 -35 -30z"/>
<path d="M6000 910 c0 -28 2 -30 40 -30 38 0 40 2 40 30 0 28 -2 30 -40 30
-38 0 -40 -2 -40 -30z"/>
<path d="M6100 910 c0 -28 2 -30 40 -30 25 0 40 5 41 13 0 6 2 20 4 30 3 14
-4 17 -41 17 -42 0 -44 -1 -44 -30z"/>
<path d="M6210 910 c0 -28 2 -30 40 -30 38 0 40 2 40 30 0 28 -2 30 -40 30
-38 0 -40 -2 -40 -30z"/>
<path d="M5535 850 c-8 -14 3 -30 21 -30 8 0 14 9 14 20 0 21 -24 28 -35 10z"/>
<path d="M5600 835 c0 -18 5 -25 19 -25 11 0 26 -3 35 -6 13 -5 16 1 16 25 0
29 -3 31 -35 31 -31 0 -35 -3 -35 -25z"/>
<path d="M5700 825 c0 -33 2 -35 35 -35 33 0 35 2 35 35 0 33 -2 35 -35 35
-33 0 -35 -2 -35 -35z"/>
<path d="M5798 843 c-9 -40 2 -54 40 -51 34 3 37 6 37 33 0 27 -3 30 -36 33
-28 2 -37 -1 -41 -15z"/>
<path d="M5904 846 c-13 -33 0 -51 36 -51 32 0 35 2 35 30 0 27 -4 30 -33 33
-22 2 -34 -2 -38 -12z"/>
<path d="M6004 846 c-13 -33 0 -51 36 -51 32 0 35 2 35 30 0 27 -4 30 -33 33
-22 2 -34 -2 -38 -12z"/>
<path d="M6104 846 c-11 -29 1 -51 29 -54 44 -5 54 3 49 37 -4 28 -8 31 -38
31 -21 0 -37 -6 -40 -14z"/>
<path d="M6210 825 c0 -36 0 -36 38 -33 34 3 37 6 37 33 0 27 -3 30 -37 33
-38 3 -38 3 -38 -33z"/>
<path d="M6310 825 c0 -24 5 -35 14 -35 17 0 21 5 30 43 6 24 4 27 -19 27 -22
0 -25 -4 -25 -35z"/>
<path d="M5855 770 c-3 -5 1 -10 10 -10 9 0 13 5 10 10 -3 6 -8 10 -10 10 -2
0 -7 -4 -10 -10z"/>
<path d="M6027 772 c-37 -5 -32 -33 7 -43 35 -10 46 -4 46 21 0 21 -14 27 -53
22z"/>
<path d="M5900 761 c0 -5 14 -11 31 -15 45 -9 49 -8 49 9 0 11 -11 15 -40 15
-22 0 -40 -4 -40 -9z"/>
<path d="M6106 755 c-11 -29 -7 -34 31 -44 44 -13 49 -10 48 26 -1 25 -6 28
-37 31 -26 2 -37 -2 -42 -13z"/>
<path d="M6210 735 c0 -29 4 -36 25 -41 40 -10 55 1 55 41 0 34 -1 35 -40 35
-39 0 -40 -1 -40 -35z"/>
<path d="M6310 745 c0 -14 5 -25 10 -25 6 0 10 11 10 25 0 14 -4 25 -10 25 -5
0 -10 -11 -10 -25z"/>
<path d="M5613 383 c-21 -8 -15 -51 8 -63 16 -9 26 -8 45 5 28 18 30 28 8 49
-15 16 -37 19 -61 9z"/>
<path d="M6226 374 c-21 -21 -20 -30 6 -48 29 -21 34 -20 59 5 20 20 20 22 3
40 -21 23 -47 24 -68 3z"/>
<path d="M10235 865 c0 -478 1 -676 2 -438 2 237 2 629 0 870 -1 241 -2 47 -2
-432z"/>
<path d="M3487 1188 c-15 -24 -65 -106 -144 -238 -25 -41 -55 -91 -68 -110
-218 -344 -217 -343 -272 -355 -28 -6 -33 -11 -33 -36 l0 -29 130 0 c72 0 133
-1 138 -2 4 -2 8 11 10 29 3 28 0 32 -27 38 -17 4 -33 11 -36 16 -8 12 73 146
93 154 8 3 73 5 144 4 l128 -1 10 -37 c6 -20 13 -55 17 -78 l6 -42 -47 -12
c-42 -10 -46 -14 -46 -41 l0 -30 183 3 c119 1 207 -2 255 -11 208 -38 401 88
402 263 0 93 -42 143 -176 210 -98 49 -134 81 -134 119 0 88 108 150 196 113
39 -16 64 -62 64 -120 0 -33 2 -35 35 -35 29 0 35 4 36 23 l0 22 9 -22 c7 -16
18 -23 38 -23 25 0 31 7 51 55 34 81 40 85 133 85 l80 0 -7 -47 c-3 -27 -27
-160 -53 -298 l-47 -250 -62 -13 c-48 -11 -62 -18 -67 -35 -3 -12 -2 -25 2
-29 4 -4 88 -8 187 -9 l180 -1 3 30 c3 28 0 32 -35 41 -21 6 -44 11 -50 11 -8
0 -13 12 -13 29 0 22 67 406 96 549 l7 32 63 0 c85 0 114 -12 114 -47 0 -16 3
-45 6 -65 6 -35 9 -38 39 -38 l33 0 8 78 c4 42 8 95 8 116 l1 39 -329 1 -330
0 -24 -92 c-14 -51 -27 -90 -30 -87 -3 3 1 37 8 76 15 80 15 80 -55 101 -55
18 -201 17 -245 -1 -134 -55 -214 -182 -180 -285 15 -47 61 -85 170 -141 106
-55 130 -81 130 -141 0 -134 -235 -185 -280 -60 -5 16 -10 46 -10 67 0 38 -1
39 -35 39 -28 0 -36 -4 -40 -22 -3 -13 -11 -52 -19 -87 -8 -34 -17 -65 -19
-67 -2 -3 -14 -1 -27 4 -26 10 -54 101 -154 497 -51 203 -53 210 -79 213 -18
2 -30 -3 -40 -20z m13 -318 c12 -52 24 -103 26 -112 5 -16 -4 -18 -101 -18
l-105 0 22 41 c13 23 28 49 33 58 6 9 28 47 50 84 25 43 42 62 46 54 4 -6 17
-55 29 -107z"/>
<path d="M155 1182 c-14 -37 -5 -50 38 -56 72 -11 71 -3 37 -202 -32 -191 -75
-413 -82 -420 -3 -2 -29 -8 -58 -14 -62 -12 -59 -10 -62 -40 l-3 -24 210 -3
c228 -3 304 7 400 51 185 85 306 267 306 462 0 104 -44 184 -126 227 -43 23
-55 24 -467 29 -149 3 -189 0 -193 -10z m535 -95 c67 -28 100 -83 100 -167 0
-123 -53 -254 -132 -325 -70 -63 -140 -87 -255 -86 -51 0 -97 2 -101 5 -9 5 5
94 59 386 38 207 35 198 67 204 54 9 227 -2 262 -17z"/>
<path d="M956 1175 c-10 -34 -7 -45 12 -45 9 0 34 -5 56 -11 l38 -11 -7 -46
c-19 -136 -97 -537 -105 -547 -5 -6 -34 -17 -64 -24 -54 -12 -73 -33 -56 -60
11 -19 611 -15 626 3 9 12 11 12 20 -1 8 -13 52 -15 314 -13 226 0 306 4 312
13 6 9 8 9 8 0 0 -10 80 -13 365 -13 l365 0 0 29 c0 27 -3 29 -61 40 l-61 12
6 32 c3 18 13 81 23 140 l18 108 95 -3 95 -3 3 -52 c3 -53 3 -53 36 -53 33 0
33 0 40 58 4 31 15 95 24 143 10 47 17 90 14 97 -2 7 -16 12 -30 12 -22 -1
-31 -10 -52 -53 l-25 -52 -91 -3 -91 -3 18 98 c11 54 21 109 24 121 6 24 6 24
145 20 76 -1 142 -6 146 -11 4 -4 10 -34 12 -67 l4 -60 34 0 c19 0 34 1 34 3
16 104 24 209 17 214 -5 3 -226 6 -490 6 l-481 0 -7 -27 c-8 -29 -9 -29 59
-46 34 -9 42 -15 42 -34 0 -12 -22 -148 -50 -301 -27 -153 -50 -280 -50 -281
0 -3 -97 -24 -111 -24 -5 0 9 33 31 73 22 41 40 79 40 85 0 7 -15 12 -34 12
-28 0 -39 -6 -57 -32 -12 -18 -38 -50 -58 -70 l-35 -38 -138 0 c-76 0 -138 4
-138 8 0 22 92 531 101 559 10 32 20 37 95 49 48 7 57 15 52 45 l-3 23 -190 0
-190 -1 -3 -31 c-3 -29 -1 -31 41 -37 71 -11 71 -10 52 -116 -32 -182 -76
-414 -86 -460 l-10 -47 -60 -11 c-32 -7 -59 -17 -59 -23 0 -6 -2 -9 -5 -6 -3
3 13 40 35 83 44 84 45 105 6 105 -18 0 -34 -14 -61 -50 -65 -89 -68 -90 -227
-90 -128 0 -139 1 -134 18 2 9 12 67 22 127 10 61 22 115 27 122 6 9 36 11
100 9 51 -2 95 -4 100 -5 4 0 7 -23 7 -51 l0 -50 34 0 33 0 7 63 c4 34 14 90
22 125 22 96 20 112 -15 112 -24 0 -31 -6 -46 -45 -9 -25 -25 -50 -35 -55 -10
-6 -57 -10 -104 -10 -101 0 -96 -10 -65 140 l22 100 113 0 c132 0 161 -8 169
-47 14 -69 19 -77 49 -77 34 0 33 -1 38 124 l3 85 -307 0 c-298 0 -307 -1
-312 -20z m1690 -56 c43 -11 44 -13 39 -43 -47 -281 -93 -524 -105 -553 -19
-45 -191 -52 -198 -7 -5 34 94 574 107 587 10 10 63 24 94 26 10 1 38 -4 63
-10z"/>
<path d="M7870 1020 c0 -118 2 -140 15 -140 12 0 15 14 15 65 l0 65 36 0 36 0
-2 -47 c-3 -67 -1 -83 10 -83 6 0 10 54 10 141 0 108 -3 140 -12 136 -9 -2
-12 -23 -11 -60 l2 -57 -35 0 -34 0 0 60 c0 47 -3 60 -15 60 -13 0 -15 -22
-15 -140z"/>
<path d="M8037 1154 c-9 -9 -9 -236 -1 -258 5 -12 20 -16 60 -16 l55 0 -3 138
-3 137 -50 3 c-28 2 -54 0 -58 -4z m88 -134 l0 -115 -32 -3 -33 -3 0 121 0
121 33 -3 32 -3 0 -115z"/>
<path d="M8185 1138 c2 -13 12 -74 20 -137 9 -63 18 -117 21 -120 11 -11 22
23 29 88 7 72 23 125 24 84 2 -63 25 -173 35 -170 11 4 50 266 40 276 -12 12
-23 -28 -30 -103 -8 -89 -18 -81 -30 22 -6 59 -18 92 -28 81 -3 -3 -12 -46
-19 -95 -15 -96 -18 -92 -32 39 -5 40 -11 57 -21 57 -10 0 -13 -7 -9 -22z"/>
<path d="M8470 1020 c0 -87 4 -140 10 -140 6 0 10 28 10 65 l0 65 30 0 c38 0
40 18 3 22 -26 3 -28 7 -31 56 l-3 52 36 0 c22 0 34 4 30 10 -3 6 -24 10 -46
10 l-39 0 0 -140z"/>
<path d="M8625 1148 c-4 -14 -45 -249 -45 -261 0 -21 19 -3 25 24 6 25 11 30
33 27 21 -2 28 -9 30 -30 2 -17 9 -28 18 -28 12 0 14 7 10 28 -3 15 -12 68
-21 117 -9 50 -18 100 -21 113 -5 24 -22 30 -29 10z m30 -135 c6 -49 5 -53
-14 -53 -23 0 -25 9 -14 85 7 55 18 43 28 -32z"/>
<path d="M8737 1153 c-4 -3 -7 -22 -7 -41 0 -25 12 -48 45 -91 32 -41 45 -66
45 -89 0 -29 -3 -32 -30 -32 -28 0 -30 3 -30 35 0 25 -4 35 -16 35 -12 0 -14
-9 -12 -42 l3 -43 53 -3 52 -3 0 49 c0 43 -6 56 -40 100 -27 34 -40 60 -40 81
0 28 3 31 30 31 27 0 30 -3 30 -30 0 -16 5 -30 10 -30 6 0 10 18 10 40 l0 40
-48 0 c-27 0 -52 -3 -55 -7z"/>
<path d="M8870 1150 c0 -5 9 -10 20 -10 19 0 20 -7 20 -130 0 -109 2 -130 15
-130 13 0 15 21 15 130 0 123 1 130 20 130 11 0 20 5 20 10 0 6 -25 10 -55 10
-30 0 -55 -4 -55 -10z"/>
<path d="M9080 1020 l0 -140 44 0 c65 0 76 20 76 140 0 120 -11 140 -76 140
l-44 0 0 -140z m74 114 c24 -9 24 -219 0 -228 -42 -16 -44 -11 -44 114 0 125
2 130 44 114z"/>
<path d="M9247 1154 c-4 -4 -7 -68 -7 -141 l0 -134 58 3 57 3 0 135 0 135 -50
3 c-28 2 -54 0 -58 -4z m83 -135 l0 -120 -32 3 -33 3 -3 104 c-1 58 0 111 2
118 3 7 19 13 36 13 l30 0 0 -121z"/>
<path d="M9460 1153 c0 -4 11 -43 25 -86 14 -44 25 -102 25 -132 0 -30 5 -55
10 -55 6 0 10 21 10 48 0 26 12 87 26 135 14 49 23 91 19 95 -10 10 -23 -18
-36 -76 -7 -28 -15 -49 -18 -46 -3 3 -13 31 -21 62 -8 30 -21 57 -27 60 -7 2
-13 0 -13 -5z"/>
<path d="M9618 1144 c-2 -9 -2 -72 0 -140 l3 -124 55 0 54 0 0 140 0 140 -54
0 c-42 0 -55 -4 -58 -16z m92 -124 l0 -120 -35 0 -35 0 0 120 0 120 35 0 35 0
0 -120z"/>
<path d="M9780 1020 l0 -140 55 0 55 0 0 140 c0 179 -18 189 -22 13 l-3 -128
-32 -3 -33 -3 0 130 c0 81 -4 131 -10 131 -6 0 -10 -53 -10 -140z"/>
<path d="M7865 748 c3 -18 12 -80 20 -137 20 -145 30 -150 47 -24 6 43 14 81
17 86 4 4 13 -33 20 -83 12 -88 26 -113 36 -67 10 46 35 251 31 255 -14 13
-25 -17 -31 -88 -4 -44 -11 -78 -15 -75 -5 3 -12 36 -16 74 -6 67 -17 101 -29
90 -3 -4 -11 -45 -17 -93 -13 -99 -23 -95 -33 17 -5 58 -10 77 -21 77 -11 0
-13 -8 -9 -32z"/>
<path d="M8106 753 c-3 -15 -12 -68 -21 -118 -9 -49 -18 -101 -21 -113 -3 -17
-1 -23 8 -20 7 3 15 15 18 29 4 16 14 25 32 27 21 3 26 -2 31 -27 7 -33 27
-43 27 -13 -1 9 -11 71 -23 136 -22 118 -40 153 -51 99z m32 -120 c9 -52 9
-53 -16 -53 -23 0 -24 2 -18 48 9 60 19 92 23 72 1 -8 6 -39 11 -67z"/>
<path d="M8220 640 c0 -160 18 -194 22 -43 l3 97 34 -97 c19 -53 38 -97 43
-97 4 0 8 63 8 140 0 160 -18 194 -22 43 l-3 -98 -34 98 c-19 53 -38 97 -43
97 -4 0 -8 -63 -8 -140z"/>
<path d="M8360 771 c0 -5 10 -11 23 -13 21 -3 22 -7 25 -130 1 -71 7 -128 12
-128 5 0 11 57 12 128 3 114 5 127 21 126 9 -1 17 4 17 12 0 10 -15 14 -55 14
-30 0 -55 -4 -55 -9z"/>
<path d="M8577 766 c-3 -8 -6 -71 -6 -140 0 -103 3 -126 15 -126 11 0 14 25
14 140 0 125 -8 167 -23 126z"/>
<path d="M8630 770 c0 -5 9 -10 20 -10 19 0 20 -7 20 -130 0 -109 2 -130 15
-130 13 0 15 21 15 130 0 123 1 130 20 130 11 0 20 5 20 10 0 6 -25 10 -55 10
-30 0 -55 -4 -55 -10z"/>
<path d="M8767 774 c-4 -4 -7 -22 -7 -41 0 -23 5 -33 15 -33 10 0 15 10 15 31
0 27 3 30 28 27 25 -3 27 -6 24 -43 -2 -22 -12 -52 -23 -66 -23 -33 -26 -89
-4 -89 10 0 15 10 15 31 0 18 9 47 21 65 14 23 19 46 17 76 l-3 43 -45 3 c-25
2 -49 0 -53 -4z"/>
<path d="M8800 515 c0 -8 7 -15 15 -15 8 0 15 7 15 15 0 8 -7 15 -15 15 -8 0
-15 -7 -15 -15z"/>
</g>
</svg>
